<svg xmlns="http://www.w3.org/2000/svg" xmlns:xlink="http://www.w3.org/1999/xlink" version="1.1" width="32" height="32" viewBox="0 0 1917 1917">
<desc>Created with SVGMaker Editor 3.0.0</desc>
<defs>
</defs>
<rect width="100%" height="100%" rx="15%" fill="rgb(20,20,20)"/>
<g transform="matrix(1 0 0 1 1208.38663 946.7905)">
<linearGradient id="SVGID_23" gradientUnits="userSpaceOnUse" gradientTransform="matrix(1 0 0 1 119.81213 112.255)" x1="1120.48" y1="1271.34" x2="942.872" y2="130.295">
<stop offset="0%" style="stop-color:rgba(7,138,141,1);"/>
<stop offset="100%" style="stop-color:rgba(28,192,141,1);"/>
</linearGradient>
<path transform=" translate(-1249.10023, -890.2695)" style="stroke: rgb(255,255,255); stroke-opacity: 0; stroke-linecap: round; fill: url(#SVGID_23); fill-rule: evenodd" stroke-linecap="round" d="M 1584.69 1520.06 C 1572.74 1510.45 1560.55 1501.14 1548.1 1492.17 C 1543.2 1488.65 1518.93 1472.27 1516.55 1469.36 C 1517.41 1461.36 1517.23 1445.77 1517.09 1433.63 C 1517.04 1429.68 1517 1426.1 1517 1423.26 L 1516.99 1333.57 L 1516.92 1045.67 C 1511.05 1043.5 1503.77 1039.41 1498.31 1036.16 C 1467.66 1018.04 1436.46 1000.84 1405.16 983.855 C 1384.72 972.765 1363.97 960.304 1342.89 950.517 C 1341.27 947.784 1341.58 916.856 1341.71 903.713 C 1341.73 901.361 1341.75 899.578 1341.75 898.629 L 1341.78 806.653 L 1341.76 523.108 C 1323.05 514.192 1283.96 488.314 1265.52 476.746 L 1148.08 404.288 L 999.23 312.199 C 975.413 297.651 951.889 282.701 927.818 268.577 C 923.395 265.982 919.003 263.397 914.782 260.479 C 913.775 304.075 913.697 348.339 914.077 391.982 C 914.635 456.196 914.288 520.514 913.941 584.832 C 913.566 654.246 913.191 723.658 913.954 792.938 C 970.666 824.828 1028.08 860.283 1084.34 891.265 L 1084.65 1199.49 C 1084.65 1202.68 1084.73 1208.69 1084.84 1216.21 C 1085.2 1242.98 1085.84 1289 1083.91 1295.79 C 1045.22 1290.28 998.706 1284.87 959.584 1284.14 C 961.486 1294.24 963.498 1304.52 965.589 1314.91 L 1584.69 1520.06 Z"/>
</g>
<path transform="translate(0,0)" style="stroke: rgb(255,255,255); stroke-opacity: 0; stroke-linecap: round; fill: rgb(1,133,118)" stroke-linecap="round" d="M1302.1788 1007.0379C1323.2588 1016.8249 1344.0088 1029.2859 1364.4488 1040.3759 1395.7488 1057.3599 1426.9488 1074.5579 1457.5988 1092.6819 1463.0588 1095.9289 1470.3388 1100.0209 1476.2088 1102.1879L1476.2788 1390.0959 1476.2888 1479.7859C1476.2888 1491.3559 1476.9688 1515.2859 1475.8388 1525.8859 1471.0088 1524.3159 1434.5388 1499.5359 1426.3388 1494.9759 1384.6888 1471.8359 1342.8988 1448.8359 1299.4188 1429.2359 1303.1388 1415.6559 1300.6888 1361.2659 1300.6188 1345.3759L1301.1888 1077.8409C1301.3388 1064.2629 1298.4288 1015.7869 1302.1788 1007.0379Z"/>
<g transform="matrix(1 0 0 1 554.03995 1021.02438)">
<linearGradient id="SVGID_25" gradientUnits="userSpaceOnUse" gradientTransform="matrix(1 0 0 1 0 0)" x1="495.302" y1="1349.55" x2="453.53" y2="355.457">
<stop offset="0%" style="stop-color:rgba(3,121,139,1);"/>
<stop offset="100%" style="stop-color:rgba(25,183,146,1);"/>
</linearGradient>
<path transform=" translate(-474.94115, -852.2485)" style="stroke-linecap: round; fill: url(#SVGID_25)" stroke-linecap="round" d="M 314.055 536.973 L 634.942 343.527 C 635.869 418.581 636.068 493.642 635.539 568.699 L 635.536 851.424 L 635.236 1098.33 C 635.136 1134.15 636.171 1173.01 635.092 1208.47 C 553.681 1233.07 473.682 1269.33 399.211 1310.28 C 380.655 1320.43 362.428 1331.16 344.559 1342.47 C 339.847 1345.4 318.454 1359.95 315.314 1360.97 C 314.524 1355.67 314.75 1341.82 314.744 1336 L 314.777 1290.91 L 314.871 1133.92 L 314.055 536.973 Z"/>
</g>
<g transform="matrix(15.12684 0 0 10.42604 958.48358 1409.82125)">
<linearGradient id="SVGID_159" gradientUnits="userSpaceOnUse" gradientTransform="matrix(1 0 0 1 8.96448 30.978)" x1="39.035494962599905" y1="0" x2="39.035494962599905" y2="36.41937501480339">
<stop offset="0%" style="stop-color: rgba(20,45,200,1);"/>
<stop offset="50%" style="stop-color: rgba(20,50,240,1);"/>
<stop offset="100%" style="stop-color: rgba(60,120,255,1);"/>
</linearGradient>
<path transform=" translate(-47.99998, -49.18769)" style="stroke-width: 0; fill: url(#SVGID_159)" vector-effect="non-scaling-stroke" stroke-linecap="round" d="M 9.113 65.022 C 8.317 64.924 10.738 54.951 15.96 47.553 C 23.243 37.234 35.374 30.978 48 30.978 C 60.626 30.978 72.756 37.235 80.039 47.553 C 85.261 54.952 87.683 64.925 86.887 65.023 C 61.156 68.189 34.844 68.189 9.113 65.022 Z"/>
</g>
</svg>
