<svg xmlns="http://www.w3.org/2000/svg" xmlns:xlink="http://www.w3.org/1999/xlink" version="1.1" width="32" height="32" viewBox="0 0 1917 1917">
<defs>
</defs>
<rect width="100%" height="100%" rx="15%" fill="rgb(20,20,20)"/>
<g transform="matrix(1 0 0 1 1309.76158 947.38316)">
<linearGradient id="SVGID_563" gradientUnits="userSpaceOnUse" gradientTransform="matrix(1 0 0 1 0 0)" x1="1120.48" y1="1271.34" x2="942.872" y2="130.295">
<stop offset="0%" style="stop-color:rgba(7,138,141,1);"/>
<stop offset="100%" style="stop-color:rgba(28,192,141,1);"/>
</linearGradient>
<path transform=" translate(-1189.94917, -835.12828)" style="fill: url(#SVGID_563)" stroke-linecap="round" d="M 794.97 148.224 C 799.191 151.142 803.583 153.727 808.006 156.322 C 832.077 170.446 855.601 185.396 879.418 199.944 L 1028.27 292.033 L 1145.71 364.491 C 1164.15 376.059 1203.24 401.937 1221.95 410.853 L 1221.97 694.398 L 1221.94 786.374 C 1221.94 792.624 1221.17 835.04 1223.08 838.262 C 1244.16 848.049 1264.91 860.51 1285.35 871.6 C 1316.65 888.584 1347.85 905.782 1378.5 923.906 C 1383.96 927.153 1391.24 931.245 1397.11 933.412 L 1397.18 1221.32 L 1397.19 1311.01 C 1397.19 1322.58 1397.87 1346.51 1396.74 1357.11 C 1399.12 1360.02 1423.39 1376.4 1428.29 1379.92 C 1442.76 1390.35 1456.89 1401.23 1470.69 1412.53 C 1513.09 1447.81 1547.71 1482.9 1586.2 1521.97 C 1539.17 1521.96 1492.03 1522.72 1445.17 1519.2 C 1430.36 1518.08 1410.91 1517.86 1396.98 1514.6 C 1368.99 1508.07 1334.5 1489.06 1306.64 1485.01 C 1291.39 1482.8 1266.64 1482.02 1250.62 1480.84 L 1141.04 1472.62 C 1120.13 1471.12 1093.37 1470.05 1073.12 1465.76 C 1060.84 1463.15 1039.88 1454.14 1027.73 1449.24 L 967.89 1425.1 C 963.981 1403.09 961.389 1371.85 958.112 1348.7 C 939.589 1342.89 888.694 1326.31 871.669 1323.66 C 860.89 1274.43 849.028 1221.04 839.772 1171.89 C 878.894 1172.62 925.408 1178.03 964.097 1183.54 C 966.565 1174.84 964.835 1101.77 964.84 1087.24 L 964.531 779.01 C 908.267 748.028 850.854 712.573 794.142 680.683 C 792.672 547.209 795.425 413.241 794.265 279.727 C 793.885 236.084 793.963 191.82 794.97 148.224 Z"/>
</g>
<g transform="matrix(1 0 0 1 1332.79841 1459.21616)">
<linearGradient id="SVGID_564" gradientUnits="userSpaceOnUse" gradientTransform="matrix(1 0 0 1 839.772 1171.89)" x1="373.214" y1="0" x2="373.214" y2="350.14255631600577">
<stop offset="0%" style="stop-color:rgba(6,6,136,1);"/>
<stop offset="50%" style="stop-color:rgba(29,19,162,1);"/>
<stop offset="100%" style="stop-color:rgba(0,87,255,1);"/>
</linearGradient>
<path transform=" translate(-1212.986, -1346.96128)" style="fill: url(#SVGID_564)" stroke-linecap="round" d="M 839.772 1171.89 C 878.894 1172.62 925.408 1178.03 964.097 1183.54 C 1048.32 1193.53 1143.38 1226.41 1220.32 1260.46 C 1263.8 1280.06 1305.59 1303.06 1347.24 1326.2 C 1355.44 1330.76 1391.91 1355.54 1396.74 1357.11 C 1399.12 1360.02 1423.39 1376.4 1428.29 1379.92 C 1442.76 1390.35 1456.89 1401.23 1470.69 1412.53 C 1513.09 1447.81 1547.71 1482.9 1586.2 1521.97 C 1539.17 1521.96 1492.03 1522.72 1445.17 1519.2 C 1430.36 1518.08 1410.91 1517.86 1396.98 1514.6 C 1368.99 1508.07 1334.5 1489.06 1306.64 1485.01 C 1291.39 1482.8 1266.64 1482.02 1250.62 1480.84 L 1141.04 1472.62 C 1120.13 1471.12 1093.37 1470.05 1073.12 1465.76 C 1060.84 1463.15 1039.88 1454.14 1027.73 1449.24 L 967.89 1425.1 C 963.981 1403.09 961.389 1371.85 958.112 1348.7 C 939.589 1342.89 888.694 1326.31 871.669 1323.66 C 860.89 1274.43 849.028 1221.04 839.772 1171.89 Z"/>
</g>
<path transform="translate(0,0)" style="fill: rgb(1,133,118)" stroke-linecap="round" d="M1342.8924 950.5169C1363.9724 960.3039 1384.7224 972.7649 1405.1624 983.8549 1436.4624 1000.8389 1467.6624 1018.0369 1498.3124 1036.1609 1503.7724 1039.4079 1511.0524 1043.4999 1516.9224 1045.6669L1516.9924 1333.5749 1517.0024 1423.2649C1517.0024 1434.8349 1517.6824 1458.7649 1516.5524 1469.3649 1511.7224 1467.7949 1475.2524 1443.0149 1467.0524 1438.4549 1425.4024 1415.3149 1383.6124 1392.3149 1340.1324 1372.7149 1343.8524 1359.1349 1341.4024 1304.7449 1341.3324 1288.8549L1341.9024 1021.3199C1342.0524 1007.7419 1339.1424 959.2659 1342.8924 950.5169Z"/>
<g transform="matrix(1 0 0 1 594.75355 964.50338)">
<linearGradient id="SVGID_565" gradientUnits="userSpaceOnUse" gradientTransform="matrix(1 0 0 1 0 0)" x1="495.302" y1="1349.55" x2="453.53" y2="355.457">
<stop offset="0%" style="stop-color:rgba(3,121,139,1);"/>
<stop offset="100%" style="stop-color:rgba(25,183,146,1);"/>
</linearGradient>
<path transform=" translate(-474.94115, -852.2485)" style="fill: url(#SVGID_565)" stroke-linecap="round" d="M 314.055 536.973 L 634.942 343.527 C 635.869 418.581 636.068 493.642 635.539 568.699 L 635.536 851.424 L 635.236 1098.33 C 635.136 1134.15 636.171 1173.01 635.092 1208.47 C 553.681 1233.07 473.682 1269.33 399.211 1310.28 C 380.655 1320.43 362.428 1331.16 344.559 1342.47 C 339.847 1345.4 318.454 1359.95 315.314 1360.97 C 314.524 1355.67 314.75 1341.82 314.744 1336 L 314.777 1290.91 L 314.871 1133.92 L 314.055 536.973 Z"/>
</g>
<g transform="matrix(1 0 0 1 575.18541 1460.1226)">
<linearGradient id="SVGID_566" gradientUnits="userSpaceOnUse" gradientTransform="matrix(1 0 0 1 125.584 1173.58)" x1="329.789" y1="0" x2="329.789" y2="348.5754354770936">
<stop offset="0%" style="stop-color:rgba(6,6,136,1);"/>
<stop offset="50%" style="stop-color:rgba(29,19,162,1);"/>
<stop offset="100%" style="stop-color:rgba(0,87,255,1);"/>
</linearGradient>
<path transform=" translate(-455.373, -1347.86772)" style="fill: url(#SVGID_566)" stroke-linecap="round" d="M 635.092 1208.47 C 676.914 1195.25 741.633 1178.92 785.162 1173.58 C 782.6 1221.57 776.044 1277.56 776.035 1324.77 C 743.257 1342.59 742.998 1346.56 722.836 1376.02 C 715.485 1386.8 707.76 1397.32 699.674 1407.56 C 682.739 1428.83 641.478 1468.14 618.293 1482.82 C 544.321 1486.86 468.273 1487.3 394.189 1491.13 C 369.644 1492.39 337.165 1513.13 312.27 1517 C 300.663 1519.29 282.725 1517.97 270.501 1518.99 C 222.287 1523.03 173.983 1522.13 125.584 1521.93 C 160.702 1486.92 197.742 1450.69 236.286 1419.63 C 249.744 1408.73 263.505 1398.21 277.553 1388.09 C 284.043 1383.49 311.205 1365.72 315.314 1360.97 C 318.454 1359.95 339.847 1345.4 344.559 1342.47 C 362.428 1331.16 380.655 1320.43 399.211 1310.28 C 473.682 1269.33 553.681 1233.07 635.092 1208.47 Z"/>
</g>
</svg>
