<svg xmlns="http://www.w3.org/2000/svg" xmlns:xlink="http://www.w3.org/1999/xlink" version="1.1" width="147" height="24" viewBox="0 0 147 24">
<desc>Created with SVGMaker Editor 3.0.0</desc>
<defs>
</defs>
<path transform="translate(0,0)" style="fill: rgb(19,167,136)" stroke-linecap="round" d="M39.6524 20.6982C38.8711 20.6982 38.1445 20.581 37.4805 20.3545 36.8242 20.1279 36.2539 19.7842 35.7774 19.3232 35.2969 18.8545 34.9258 18.2842 34.668 17.6045 34.4063 16.917 34.2774 16.1201 34.2774 15.2139 34.2774 14.3818 34.4024 13.6279 34.6524 12.9482 34.9024 12.2607 35.2617 11.6748 35.7305 11.1826 36.1875 10.7139 36.7539 10.3545 37.4336 10.1045 38.1094 9.8467 38.8555 9.7139 39.668 9.7139 40.1055 9.7139 40.5 9.7412 40.8555 9.792 41.2188 9.8349 41.5508 9.8974 41.8555 9.9795 42.168 10.0732 42.4492 10.1787 42.6992 10.292 42.957 10.3974 43.1875 10.4951 43.3867 10.5889L43.3867 13.1514 43.0742 13.1514C42.9375 13.0381 42.7695 12.9014 42.5742 12.7451 42.375 12.5889 42.1445 12.4404 41.8867 12.292 41.625 12.1357 41.3438 12.0068 41.043 11.9014 40.7383 11.7998 40.418 11.7451 40.0742 11.7451 39.6992 11.7451 39.332 11.8076 38.9805 11.9326 38.6367 12.0576 38.3164 12.2568 38.0274 12.5264 37.7539 12.7998 37.5313 13.1592 37.3555 13.6045 37.1758 14.0537 37.0899 14.5967 37.0899 15.2295 37.0899 15.8857 37.1836 16.4404 37.3711 16.8857 37.5586 17.3349 37.793 17.6826 38.0742 17.9326 38.3633 18.1943 38.6875 18.3818 39.043 18.4951 39.3945 18.6123 39.7461 18.667 40.0899 18.667 40.4219 18.667 40.75 18.6201 41.0742 18.5264 41.3945 18.4248 41.6914 18.2842 41.9649 18.1045 42.1914 17.9717 42.4063 17.8232 42.6055 17.667 42.8008 17.5107 42.9688 17.3779 43.1055 17.2607L43.3867 17.2607 43.3867 19.792C43.1133 19.9092 42.8594 20.0185 42.6211 20.1201 42.3789 20.2256 42.1289 20.3193 41.8711 20.4014 41.5274 20.4951 41.2031 20.5654 40.9024 20.6201 40.5977 20.6709 40.1836 20.6982 39.6524 20.6982ZM39.6524 20.6982"/>
<path transform="translate(0,0)" style="fill: rgb(19,167,136)" stroke-linecap="round" d="M55.3711 20.4951L52.5586 20.4951 51.8242 18.3545 47.918 18.3545 47.1836 20.4951 44.4492 20.4951 48.3398 9.917 51.4648 9.917ZM51.168 16.417L49.8711 12.6201 48.5742 16.417ZM51.168 16.417"/>
<path transform="translate(0,0)" style="fill: rgb(19,167,136)" stroke-linecap="round" d="M65.8203 13.2607C65.8203 13.7295 65.7344 14.1943 65.5703 14.6513 65.4023 15.1006 65.168 15.4795 64.8672 15.792 64.4375 16.2099 63.9648 16.5263 63.4453 16.7451 62.9336 16.956 62.293 17.0576 61.5234 17.0576L59.8359 17.0576 59.8359 20.4951 57.1172 20.4951 57.1172 9.917 61.5859 9.917C62.2617 9.917 62.8281 9.9756 63.2891 10.0888 63.7461 10.206 64.1523 10.3818 64.5078 10.6201 64.9336 10.8935 65.2578 11.2451 65.4766 11.6826 65.7031 12.1201 65.8203 12.6474 65.8203 13.2607ZM63.0078 13.3232C63.0078 13.0224 62.9219 12.7685 62.7578 12.5576 62.6016 12.3388 62.418 12.1904 62.2109 12.1045 61.9297 11.9912 61.6523 11.9287 61.3828 11.917 61.1094 11.8974 60.75 11.8857 60.3047 11.8857L59.8359 11.8857 59.8359 15.0576 60.6172 15.0576C61.0742 15.0576 61.4531 15.0342 61.7578 14.9795 62.0586 14.917 62.3086 14.8037 62.5078 14.6357 62.6836 14.4795 62.8086 14.2998 62.8828 14.0888 62.9648 13.8818 63.0078 13.6279 63.0078 13.3232ZM63.0078 13.3232"/>
<path transform="translate(0,0)" style="fill: rgb(19,167,136)" stroke-linecap="round" d="M73.6875 20.4951L67.5156 20.4951 67.5156 18.6201 69.2344 18.6201 69.2344 11.792 67.5156 11.792 67.5156 9.917 73.6875 9.917 73.6875 11.792 71.9531 11.792 71.9531 18.6201 73.6875 18.6201ZM73.6875 20.4951"/>
<path transform="translate(0,0)" style="fill: rgb(19,167,136)" stroke-linecap="round" d="M84.3906 11.9638L81.0938 11.9638 81.0938 20.4951 78.375 20.4951 78.375 11.9638 75.0938 11.9638 75.0938 9.917 84.3906 9.917ZM84.3906 11.9638"/>
<path transform="translate(0,0)" style="fill: rgb(19,167,136)" stroke-linecap="round" d="M96.0156 20.4951L93.2031 20.4951 92.4688 18.3545 88.5625 18.3545 87.8281 20.4951 85.0938 20.4951 88.9844 9.917 92.1094 9.917ZM91.8125 16.417L90.5156 12.6201 89.2188 16.417ZM91.8125 16.417"/>
<path transform="translate(0,0)" style="fill: rgb(19,167,136)" stroke-linecap="round" d="M105.375 20.4951L97.7656 20.4951 97.7656 9.917 100.4844 9.917 100.4844 18.4482 105.375 18.4482ZM105.375 20.4951"/>
<path transform="translate(0,0)" style="fill: rgb(11,79,255)" stroke-linecap="round" d="M123.4688 20.4951L120.75 20.4951 120.75 15.8388 116.7344 15.8388 116.7344 20.4951 114.0156 20.4951 114.0156 9.917 116.7344 9.917 116.7344 13.792 120.75 13.792 120.75 9.917 123.4688 9.917ZM123.4688 20.4951"/>
<path transform="translate(0,0)" style="fill: rgb(11,79,255)" stroke-linecap="round" d="M135.3962 16.667C135.3962 17.9717 134.9978 18.9717 134.2087 19.667 133.4157 20.3662 132.2478 20.7139 130.7087 20.7139 129.154 20.7139 127.9821 20.3662 127.1931 19.667 126.4118 18.9717 126.0212 17.9717 126.0212 16.667L126.0212 9.917 128.7399 9.917 128.7399 16.5107C128.7399 17.2529 128.8884 17.8037 129.1931 18.167 129.5056 18.5224 130.0095 18.6982 130.7087 18.6982 131.3845 18.6982 131.8806 18.5264 132.1931 18.1826 132.5056 17.8389 132.6618 17.2842 132.6618 16.5107L132.6618 9.917 135.3962 9.917ZM135.3962 16.667"/>
<path transform="translate(0,0)" style="fill: rgb(11,79,255)" stroke-linecap="round" d="M146.9554 17.2607C146.9554 17.7724 146.8499 18.2295 146.6429 18.6357 146.4437 19.0342 146.1663 19.3662 145.8148 19.6357 145.3968 19.9482 144.9398 20.1748 144.4398 20.3076 143.9398 20.4326 143.3069 20.4951 142.5491 20.4951L137.9398 20.4951 137.9398 9.917 142.0335 9.917C142.8851 9.917 143.5062 9.9482 143.8929 10.0107 144.2874 10.0654 144.678 10.1904 145.0648 10.3857 145.471 10.5849 145.7718 10.8545 145.971 11.1982 146.1663 11.542 146.2679 11.9326 146.2679 12.3701 146.2679 12.8818 146.1312 13.3349 145.8616 13.7295 145.5882 14.1279 145.2093 14.4287 144.721 14.6357L144.721 14.6982C145.4085 14.8349 145.9476 15.1201 146.346 15.5576 146.7523 15.9873 146.9554 16.5537 146.9554 17.2607ZM143.471 12.9013C143.471 12.7373 143.428 12.5654 143.346 12.3857 143.2601 12.2099 143.1038 12.081 142.8773 11.9951 142.678 11.9248 142.4319 11.8818 142.1429 11.8701 141.8499 11.8623 141.4398 11.8545 140.9085 11.8545L140.6429 11.8545 140.6429 14.0888 141.0648 14.0888C141.5023 14.0888 141.8694 14.0849 142.1741 14.0732 142.4749 14.0654 142.7093 14.0185 142.8773 13.9326 143.1273 13.831 143.2874 13.6904 143.3616 13.5107 143.4319 13.3349 143.471 13.1318 143.471 12.9013ZM144.1429 17.2138C144.1429 16.8818 144.0726 16.6279 143.9398 16.4482 143.8148 16.2607 143.596 16.1201 143.2835 16.0263 143.0726 15.9638 142.7835 15.9326 142.4085 15.9326 142.0335 15.9248 141.6429 15.917 141.2366 15.917L140.6429 15.917 140.6429 18.5576 140.846 18.5576C141.6038 18.5576 142.1507 18.5576 142.4866 18.5576 142.8187 18.5498 143.1194 18.4873 143.3929 18.3701 143.6819 18.2451 143.8812 18.0888 143.9866 17.9013 144.0882 17.706 144.1429 17.4756 144.1429 17.2138ZM144.1429 17.2138"/>
<g transform="matrix(0.0191 0 0 0.0191 13.19107 11.99089)">
<g transform="translate(0,0)" style="">
<g transform="matrix(1 0 0 1 234.77919 -12.85539)">
<linearGradient id="SVGID_91" gradientUnits="userSpaceOnUse" gradientTransform="matrix(1 0 0 1 79.09813 168.776)" x1="1120.48" y1="1271.34" x2="942.872" y2="130.295">
<stop offset="0%" style="stop-color:rgba(7,138,141,1);"/>
<stop offset="100%" style="stop-color:rgba(28,192,141,1);"/>
</linearGradient>
<path transform=" translate(-1176.01323, -928.475)" style="stroke: rgb(255,255,255); stroke-opacity: 0; stroke-linecap: round; fill: url(#SVGID_91); fill-rule: evenodd" stroke-linecap="round" d="M 1479.23 1528.78 C 1477.51 1527.45 1476.28 1526.43 1475.84 1525.88 C 1476.7 1517.88 1476.52 1502.3 1476.38 1490.16 L 1476.38 1490.15 C 1476.33 1486.2 1476.29 1482.62 1476.29 1479.78 L 1476.28 1390.09 L 1476.21 1102.19 C 1470.34 1100.02 1463.06 1095.93 1457.6 1092.68 C 1426.95 1074.56 1395.75 1057.36 1364.45 1040.38 C 1344.01 1029.29 1323.26 1016.83 1302.18 1007.04 C 1300.56 1004.31 1300.86 973.531 1301 960.332 L 1301 960.234 C 1301.02 957.882 1301.04 956.099 1301.04 955.15 L 1301.07 863.174 L 1301.05 579.629 C 1282.34 570.713 1243.25 544.835 1224.81 533.267 L 1107.37 460.809 L 958.516 368.72 C 934.699 354.172 911.175 339.222 887.104 325.098 C 882.681 322.503 878.289 319.918 874.068 317 C 873.061 360.596 872.983 404.86 873.363 448.503 C 873.921 512.717 873.574 577.035 873.227 641.353 L 873.227 641.355 C 872.852 710.768 872.477 780.18 873.24 849.459 C 929.952 881.349 987.366 916.804 1043.63 947.786 L 1043.94 1256.01 C 1043.94 1259.2 1044.02 1265.21 1044.13 1272.73 L 1044.14 1273.54 C 1044.5 1300.42 1045.11 1345.59 1043.2 1352.31 C 1004.51 1346.8 957.992 1341.39 918.87 1340.66 C 920.772 1350.76 922.784 1361.04 924.875 1371.43 L 1433.42 1539.95 L 1479.23 1528.78 Z"/>
</g>
<path transform="translate(0,0)" style="stroke: rgb(255,255,255); stroke-opacity: 0; stroke-linecap: round; fill: rgb(1,133,118)" stroke-linecap="round" d="M360.9447 65.7075C382.0248 75.4945 402.7748 87.9555 423.2147 99.0455 454.5147 116.0295 485.7147 133.2275 516.3647 151.3515 521.8247 154.5985 529.1047 158.6905 534.9747 160.8575L535.0448 448.7655 535.0548 538.4555C535.0548 550.0255 535.7347 573.9555 534.6047 584.5555 529.7748 582.9855 493.3048 558.2055 485.1047 553.6455 443.4547 530.5055 401.6647 507.5055 358.1847 487.9055 361.9047 474.3255 359.4547 419.9355 359.3847 404.0455L359.9547 136.5105C360.1047 122.9325 357.1947 74.4565 360.9447 65.7075Z"/>
<g transform="matrix(1 0 0 1 -387.1941 79.69399)">
<linearGradient id="SVGID_92" gradientUnits="userSpaceOnUse" gradientTransform="matrix(1 0 0 1 0 0)" x1="495.302" y1="1349.55" x2="453.53" y2="355.457">
<stop offset="0%" style="stop-color:rgba(3,121,139,1);"/>
<stop offset="100%" style="stop-color:rgba(25,183,146,1);"/>
</linearGradient>
<path transform=" translate(-474.94115, -852.2485)" style="stroke-linecap: round; fill: url(#SVGID_92)" stroke-linecap="round" d="M 314.055 536.973 L 634.942 343.527 C 635.869 418.581 636.068 493.642 635.539 568.699 L 635.536 851.424 L 635.236 1098.33 C 635.136 1134.15 636.171 1173.01 635.092 1208.47 C 553.681 1233.07 473.682 1269.33 399.211 1310.28 C 380.655 1320.43 362.428 1331.16 344.559 1342.47 C 339.847 1345.4 318.454 1359.95 315.314 1360.97 C 314.524 1355.67 314.75 1341.82 314.744 1336 L 314.777 1290.91 L 314.871 1133.92 L 314.055 536.973 Z"/>
</g>
<g transform="matrix(15.12684 0 0 10.42604 0 434.97546)">
<linearGradient id="SVGID_93" gradientUnits="userSpaceOnUse" gradientTransform="matrix(1 0 0 1 8.96448 30.978)" x1="39.035494962599905" y1="0" x2="39.035494962599905" y2="36.41937501480339">
<stop offset="0%" style="stop-color: rgba(20,45,200,1);"/>
<stop offset="50%" style="stop-color: rgba(20,50,240,1);"/>
<stop offset="100%" style="stop-color: rgba(60,120,255,1);"/>
</linearGradient>
<path transform=" translate(-47.99998, -49.18769)" style="stroke-width: 0; fill: url(#SVGID_93)" vector-effect="non-scaling-stroke" stroke-linecap="round" d="M 9.113 65.022 C 8.317 64.924 10.738 54.951 15.96 47.553 C 23.243 37.234 35.374 30.978 48 30.978 C 60.626 30.978 72.756 37.235 80.039 47.553 C 85.261 54.952 87.683 64.925 86.887 65.023 C 61.156 68.189 34.844 68.189 9.113 65.022 Z"/>
</g>
</g>
</g>
</svg>
